<?xml version="1.0" encoding="UTF-8" standalone="no"?>
<!DOCTYPE svg PUBLIC "-//W3C//DTD SVG 1.1//EN" "http://www.w3.org/Graphics/SVG/1.1/DTD/svg11.dtd">
<svg xmlns="http://www.w3.org/2000/svg" version="1.1" viewBox="0.00 0.00 995.00 1405.00">
<path fill="#f7a600" d="
  M 526.98 518.63
  Q 526.19 517.75 525.31 518.54
  Q 514.37 528.31 503.28 537.23
  Q 498.86 540.79 493.79 543.58
  Q 483.72 549.11 472.74 548.04
  C 464.89 547.27 456.36 542.09 450.32 537.23
  C 437.11 526.61 424.31 515.12 408.44 509.37
  A 0.70 0.69 35.2 0 1 408.23 508.18
  C 424.65 494.80 444.31 484.30 464.90 479.15
  C 542.47 459.73 618.09 514.52 638.47 588.38
  Q 646.99 619.23 641.52 651.42
  C 638.33 670.19 625.21 685.06 608.03 692.13
  Q 601.47 694.83 593.14 695.74
  Q 586.20 696.50 578.86 694.84
  Q 561.81 691.00 550.23 676.28
  Q 549.78 675.72 550.22 675.14
  Q 550.56 674.68 551.13 674.54
  Q 556.80 673.09 562.70 671.28
  Q 591.20 662.52 612.55 639.19
  Q 617.71 633.54 622.78 627.57
  A 1.31 1.30 42.8 0 0 622.71 625.81
  L 591.17 594.27
  Q 590.73 593.84 590.23 594.20
  Q 573.99 605.89 560.37 614.01
  Q 548.17 621.28 533.39 620.11
  C 520.78 619.11 508.46 610.85 500.05 601.52
  A 0.85 0.85 0.0 0 1 500.33 600.18
  Q 506.02 597.57 511.82 594.00
  C 529.48 583.14 544.72 568.84 559.80 554.14
  A 0.89 0.88 43.1 0 0 559.75 552.84
  C 557.68 551.06 556.14 548.88 554.31 547.04
  C 544.90 537.65 535.69 528.27 526.98 518.63
  Z"
/>
<path fill="#f7a600" d="
  M 368.18 631.40
  Q 367.64 632.08 368.26 632.70
  L 400.03 664.56
  A 0.48 0.48 0.0 0 0 400.67 664.61
  Q 415.54 653.64 431.42 644.24
  Q 437.77 640.48 446.53 638.74
  C 457.80 636.50 469.92 640.35 479.25 646.86
  Q 485.50 651.21 491.17 657.33
  Q 491.75 657.95 490.99 658.33
  Q 468.31 669.71 449.02 687.64
  Q 440.14 695.89 431.20 704.33
  A 0.96 0.96 0.0 0 0 431.18 705.71
  Q 440.11 714.58 448.69 723.80
  Q 456.01 731.66 463.70 739.29
  A 1.99 1.99 0.0 0 0 466.38 739.40
  Q 474.48 732.60 481.28 726.70
  C 495.11 714.70 511.43 704.22 530.01 714.40
  C 540.54 720.17 549.57 728.58 559.13 735.95
  Q 570.39 744.63 583.33 749.71
  A 0.21 0.20 -55.1 0 1 583.39 750.06
  C 562.86 766.82 537.38 779.16 511.31 782.29
  Q 500.92 783.53 486.02 782.97
  Q 475.65 782.58 466.64 780.53
  Q 442.65 775.07 423.74 763.49
  Q 370.46 730.88 352.68 670.51
  Q 349.06 658.22 348.15 644.62
  Q 347.12 629.34 348.58 613.76
  Q 350.97 588.18 371.23 573.04
  Q 382.77 564.42 397.21 563.07
  Q 410.85 561.79 422.01 567.12
  Q 433.43 572.59 441.22 582.89
  A 0.53 0.53 0.0 0 1 440.94 583.72
  Q 436.25 585.05 431.45 586.43
  Q 401.19 595.08 379.63 618.13
  Q 373.44 624.75 368.18 631.40
  Z"
/>
<path fill="#009cb3" d="
  M 680.30 799.38
  C 675.57 798.70 670.97 801.32 667.10 804.24
  Q 661.57 808.42 664.16 802.02
  Q 664.34 801.57 666.34 798.84
  Q 672.07 791.01 680.90 786.16
  C 685.01 783.90 689.12 783.43 693.76 784.03
  Q 699.59 784.79 704.89 785.36
  C 708.89 785.80 713.84 785.14 717.60 783.96
  Q 723.75 782.04 731.14 776.94
  Q 732.57 775.95 733.61 776.88
  A 1.25 1.25 0.0 0 1 733.91 778.37
  C 727.66 791.27 709.85 802.24 695.76 802.04
  C 690.62 801.97 685.47 800.12 680.30 799.38
  Z"
/>
<path fill="#009cb3" d="
  M 321.77 798.68
  L 316.95 808.48
  A 4.21 4.21 0.0 0 1 310.80 810.10
  L 304.32 805.68
  A 4.21 4.21 0.0 0 1 302.92 800.34
  L 308.63 788.81
  A 4.21 4.21 0.0 0 1 315.51 787.84
  L 321.11 793.99
  A 4.21 4.21 0.0 0 1 321.77 798.68
  Z"
/>
<path fill="#009cb3" d="
  M 343.79 798.72
  L 338.89 808.54
  A 4.20 4.20 0.0 0 1 332.72 810.10
  L 326.31 805.62
  A 4.20 4.20 0.0 0 1 324.95 800.32
  L 330.64 788.80
  A 4.20 4.20 0.0 0 1 337.51 787.83
  L 343.14 794.01
  A 4.20 4.20 0.0 0 1 343.79 798.72
  Z"
/>
<path fill="#009cb3" d="
  M 313.96 874.51
  Q 314.27 874.28 314.54 874.00
  Q 314.94 873.59 315.45 873.32
  Q 325.11 868.07 329.73 860.22
  Q 332.33 855.80 330.00 851.09
  Q 328.67 848.40 325.86 849.48
  Q 322.68 850.70 319.79 848.95
  Q 315.74 846.51 317.23 842.00
  Q 319.51 835.03 323.81 827.37
  C 326.61 822.37 333.20 823.19 336.39 826.99
  C 341.67 833.29 343.05 839.94 341.56 847.98
  C 337.42 870.34 317.38 883.87 296.79 889.35
  Q 287.58 891.81 281.76 892.64
  Q 274.89 893.62 267.52 894.04
  Q 264.79 894.19 262.58 893.35
  A 1.12 1.12 0.0 0 1 262.43 891.33
  Q 264.43 890.19 266.60 889.35
  Q 276.40 885.57 285.89 882.02
  C 292.83 879.43 300.30 875.85 306.41 871.76
  Q 308.80 870.15 309.81 867.18
  A 1.22 1.21 -63.5 0 0 309.35 865.78
  C 305.62 863.21 300.85 861.73 296.85 864.19
  C 289.94 868.46 285.11 875.99 278.91 881.27
  C 278.16 881.90 277.00 881.99 276.07 882.12
  A 0.94 0.94 0.0 0 1 275.17 880.65
  Q 277.89 876.85 280.75 873.07
  C 284.92 867.54 287.23 860.62 288.29 854.06
  Q 290.26 841.93 291.16 829.01
  Q 291.37 825.95 292.58 822.92
  Q 296.28 813.71 300.46 805.05
  A 0.56 0.56 0.0 0 1 301.47 805.05
  Q 302.43 807.04 301.86 809.15
  Q 300.85 812.87 300.78 816.18
  Q 300.71 819.52 300.48 822.82
  Q 300.16 827.23 299.90 832.00
  Q 299.29 843.09 295.88 851.83
  Q 294.62 855.03 293.34 858.26
  Q 292.91 859.35 293.81 858.60
  C 296.07 856.73 297.86 854.44 300.26 852.72
  C 304.73 849.52 313.97 846.33 318.22 851.80
  Q 321.29 855.75 319.70 860.67
  Q 317.90 866.22 314.41 871.92
  C 313.97 872.63 313.82 873.39 313.52 874.17
  Q 313.17 875.08 313.96 874.51
  Z"
/>
<path fill="#009cb3" d="
  M 371.01 871.92
  Q 375.08 865.29 379.49 858.03
  C 381.73 854.35 386.87 848.27 391.63 848.00
  Q 395.61 847.77 399.46 848.94
  Q 405.03 850.63 409.55 849.44
  Q 410.09 849.30 410.09 849.86
  Q 410.04 855.45 406.64 859.44
  C 402.46 864.36 398.83 869.32 395.59 874.91
  C 388.78 886.61 379.94 895.38 365.41 894.19
  C 352.23 893.11 348.07 880.95 348.88 869.55
  Q 350.05 853.16 353.31 831.67
  C 354.67 822.66 357.74 814.53 361.38 806.15
  A 0.68 0.68 0.0 0 1 362.50 805.95
  Q 362.96 806.42 362.96 807.08
  C 362.91 811.51 362.83 816.01 362.25 820.51
  Q 358.85 847.01 358.01 857.45
  C 357.47 864.24 361.29 871.68 368.45 873.06
  Q 370.12 873.38 371.01 871.92
  Z
  M 376.29 872.01
  Q 375.71 873.07 376.91 873.08
  C 381.82 873.12 385.57 871.04 389.51 868.22
  Q 394.61 864.54 397.47 859.92
  A 0.72 0.72 0.0 0 0 397.24 858.93
  C 390.57 854.83 385.95 857.32 381.95 863.05
  C 379.94 865.93 378.01 868.91 376.29 872.01
  Z"
/>
<path fill="#009cb3" d="
  M 599.83 860.32
  Q 601.63 857.28 603.00 853.35
  Q 603.34 852.35 604.31 852.23
  Q 604.89 852.16 604.94 852.74
  Q 605.80 863.19 598.97 870.59
  Q 597.57 872.11 595.90 872.82
  C 591.07 874.86 590.87 879.75 585.14 880.89
  Q 584.69 880.98 584.31 880.72
  Q 582.42 879.41 580.21 880.80
  C 576.30 883.27 573.80 887.01 570.86 890.48
  C 566.90 895.17 560.88 897.38 555.05 894.66
  C 545.85 890.37 546.59 873.24 547.51 865.25
  C 548.13 859.89 548.32 854.57 549.17 849.13
  C 550.33 841.74 551.12 834.28 552.58 826.95
  C 553.88 820.42 556.89 813.88 559.25 807.66
  A 1.00 1.00 0.0 0 1 559.84 807.07
  Q 560.99 806.63 561.64 807.91
  A 1.31 1.29 -51.1 0 1 561.73 808.83
  C 560.56 813.00 560.90 817.27 560.34 821.55
  Q 557.81 841.00 556.03 859.55
  Q 555.39 866.22 557.88 871.52
  C 560.87 877.89 569.17 878.28 574.68 875.03
  Q 577.28 873.49 579.63 870.95
  C 580.36 870.16 581.28 869.84 582.16 869.28
  Q 582.59 869.01 583.10 869.01
  L 587.96 869.00
  Q 588.47 869.00 588.88 868.70
  C 590.73 867.40 591.42 864.36 592.34 862.38
  A 2.32 2.31 -78.0 0 1 594.41 861.03
  L 598.75 860.95
  A 1.27 1.27 0.0 0 0 599.83 860.32
  Z"
/>
<path fill="#009cb3" d="
  M 449.21 830.59
  C 451.26 825.38 454.00 820.33 456.96 815.50
  A 0.97 0.97 0.0 0 1 458.33 815.20
  Q 462.00 817.65 464.85 820.49
  C 470.58 826.19 464.64 835.74 459.74 839.70
  Q 458.60 840.63 457.45 839.71
  L 450.06 833.79
  A 2.79 2.78 30.2 0 1 449.21 830.59
  Z"
/>
<path fill="#009cb3" d="
  M 654.94 832.40
  Q 654.07 833.29 653.44 834.37
  C 651.86 837.09 647.96 842.16 644.52 839.24
  Q 641.31 836.52 638.61 833.03
  A 2.62 2.62 0.0 0 1 638.41 830.14
  C 640.78 826.00 644.42 820.05 648.27 817.13
  A 1.20 1.17 -56.0 0 1 649.23 816.93
  C 652.32 817.66 654.90 821.98 656.23 824.63
  Q 656.51 825.18 656.94 824.73
  C 659.68 821.87 661.30 818.81 664.53 816.29
  A 1.39 1.38 42.0 0 1 666.11 816.21
  Q 670.58 819.03 672.46 823.76
  C 674.73 829.48 668.84 835.42 664.51 838.69
  C 662.90 839.91 660.80 838.69 659.83 837.31
  Q 658.12 834.89 656.19 832.47
  A 0.84 0.84 0.0 0 0 654.94 832.40
  Z"
/>
<path fill="#009cb3" d="
  M 516.33 872.64
  C 514.74 879.82 511.57 888.05 506.47 893.30
  Q 506.06 893.71 505.49 893.67
  Q 504.68 893.60 504.37 892.86
  Q 504.13 892.27 504.30 891.63
  Q 507.13 880.89 507.47 877.00
  C 508.03 870.66 508.66 864.43 508.83 857.98
  Q 509.11 847.01 510.83 839.96
  Q 513.44 829.22 520.40 817.69
  Q 520.96 816.76 521.88 817.35
  C 522.51 817.75 522.85 818.51 522.62 819.26
  Q 522.18 820.75 521.98 822.30
  Q 520.23 835.75 519.28 852.55
  C 518.89 859.53 517.83 865.90 516.33 872.64
  Z"
/>
<path fill="#009cb3" d="
  M 684.74 841.37
  C 686.79 834.10 690.22 826.92 694.31 820.34
  Q 695.14 819.00 696.57 818.67
  A 1.02 1.02 0.0 0 1 697.78 819.89
  Q 696.13 826.94 695.29 833.61
  Q 693.34 849.08 691.41 862.61
  Q 689.89 873.23 684.95 884.07
  C 683.69 886.83 680.46 892.68 677.38 893.93
  A 1.10 1.10 0.0 0 1 675.91 892.58
  C 678.51 884.20 680.34 876.43 681.24 867.81
  C 682.15 859.06 682.44 849.53 684.74 841.37
  Z"
/>
<path fill="#009cb3" d="
  M 534.99 821.16
  Q 537.07 817.91 540.06 819.98
  C 542.27 821.51 546.58 825.30 546.89 828.31
  C 547.40 833.27 543.61 838.86 540.46 842.44
  A 1.74 1.73 -55.0 0 1 538.32 842.82
  Q 534.75 840.88 530.88 838.11
  Q 528.21 836.19 529.10 833.21
  Q 530.73 827.79 534.99 821.16
  Z"
/>
<path fill="#009cb3" d="
  M 430.10 893.30
  C 438.41 897.60 449.32 896.43 458.00 893.23
  C 472.82 887.77 483.00 874.26 483.09 858.14
  C 483.13 851.27 482.60 844.29 484.29 837.43
  Q 485.89 830.90 488.60 824.71
  Q 489.52 822.62 489.96 822.23
  Q 493.02 819.57 492.64 823.68
  Q 491.98 830.90 492.08 838.24
  Q 492.17 845.38 491.23 852.78
  C 488.62 873.18 480.21 892.93 465.01 906.53
  C 454.93 915.56 438.44 920.83 425.52 914.54
  C 417.65 910.70 412.71 902.10 412.09 893.43
  Q 411.43 884.20 413.79 875.14
  Q 417.87 859.48 426.41 845.26
  Q 427.69 843.13 428.67 845.42
  Q 429.43 847.19 428.45 849.09
  Q 423.50 858.69 420.95 868.74
  C 418.29 879.27 420.20 888.17 430.10 893.30
  Z"
/>
<path fill="#009cb3" d="
  M 523.17 908.07
  Q 514.06 912.14 505.15 913.81
  Q 503.93 914.04 503.31 912.95
  C 502.44 911.42 504.22 909.22 505.36 908.39
  Q 512.70 903.08 520.03 897.15
  Q 525.54 892.69 528.60 885.86
  Q 533.33 875.30 537.38 862.26
  Q 538.05 860.11 539.88 859.11
  A 1.18 1.18 0.0 0 1 541.63 860.07
  Q 541.82 863.07 541.37 866.08
  Q 539.74 877.19 535.55 890.09
  C 533.27 897.09 530.45 904.82 523.17 908.07
  Z"
/>
<path fill="#009cb3" d="
  M 672.05 859.80
  C 671.62 865.62 669.42 871.62 665.88 876.42
  C 662.23 881.36 656.67 877.05 652.75 880.12
  Q 647.71 884.07 643.18 887.98
  C 639.44 891.22 635.13 894.26 630.87 894.77
  Q 627.92 895.13 624.24 894.10
  C 616.35 891.89 609.89 893.82 602.75 896.78
  A 1.32 1.31 86.3 0 1 600.98 895.22
  Q 601.88 891.91 604.45 889.00
  Q 612.27 880.18 621.82 875.65
  Q 628.48 872.49 636.98 875.46
  C 644.66 878.13 649.76 872.38 654.78 867.85
  Q 657.89 865.04 661.61 866.39
  C 663.04 866.90 664.75 867.28 665.76 865.83
  Q 667.93 862.72 669.54 860.20
  Q 669.95 859.56 670.77 859.04
  A 0.83 0.83 0.0 0 1 672.05 859.80
  Z"
/>
<path fill="#009cb3" d="
  M 641.19 911.16
  Q 641.75 911.92 642.30 911.14
  L 648.06 902.81
  A 2.31 2.30 30.7 0 1 650.99 902.07
  C 655.56 904.36 660.59 910.91 657.85 916.35
  C 656.09 919.83 653.26 924.16 649.57 925.94
  A 0.95 0.92 38.8 0 1 648.92 926.00
  C 645.31 925.06 643.85 921.55 641.33 919.14
  A 0.52 0.51 36.7 0 0 640.53 919.25
  C 638.91 922.14 635.96 926.55 632.84 928.04
  A 2.38 2.38 0.0 0 1 630.20 927.63
  L 623.80 921.61
  Q 622.48 920.36 623.20 918.70
  Q 626.30 911.58 631.52 905.01
  A 2.56 2.56 0.0 0 1 635.16 904.64
  Q 638.35 907.31 641.19 911.16
  Z"
/>
</svg>
