<?xml version="1.0" encoding="UTF-8" standalone="no"?>
<!DOCTYPE svg PUBLIC "-//W3C//DTD SVG 1.1//EN" "http://www.w3.org/Graphics/SVG/1.1/DTD/svg11.dtd">
<svg xmlns="http://www.w3.org/2000/svg" version="1.1" viewBox="0.00 0.00 1406.00 1490.00">
<path stroke="#397c9e" stroke-width="2.00" fill="none" stroke-linecap="butt" vector-effect="non-scaling-stroke" d="
  M 982.41 401.39
  L 977.44 404.54"
/>
<path fill="#29166f" d="
  M 1128.93 666.12
  Q 1127.80 670.32 1126.05 676.00
  Q 1099.74 761.24 1044.11 829.90
  Q 1009.55 872.55 962.65 907.94
  Q 954.58 914.02 946.39 919.53
  Q 855.90 980.43 747.79 994.58
  Q 737.79 995.89 727.99 996.64
  Q 611.97 1005.54 506.23 958.36
  Q 448.44 932.57 400.29 891.99
  C 381.84 876.44 362.95 858.14 346.43 838.85
  C 280.17 761.47 241.07 662.78 237.39 560.93
  C 236.85 546.15 236.86 530.43 237.75 515.33
  Q 239.00 494.18 244.44 463.30
  Q 257.42 389.68 293.24 325.17
  Q 351.06 221.07 452.25 157.30
  Q 477.07 141.66 505.80 128.89
  Q 556.15 106.49 612.37 95.78
  Q 622.23 93.90 632.09 92.82
  Q 671.75 88.46 712.46 89.89
  C 820.00 93.66 925.11 139.27 1002.91 212.96
  Q 1089.69 295.15 1125.49 409.15
  Q 1145.61 473.25 1145.67 541.44
  Q 1145.68 559.93 1144.44 577.96
  Q 1142.16 610.98 1134.13 646.13
  C 1132.59 652.86 1130.74 659.34 1128.93 666.12
  Z
  M 274.14 486.12
  C 259.71 588.21 284.65 694.40 342.85 779.31
  C 388.90 846.51 452.89 900.22 528.16 931.70
  Q 642.84 979.67 765.69 958.33
  Q 775.53 956.62 785.25 954.28
  Q 844.30 940.08 892.20 913.60
  Q 995.01 856.78 1054.93 755.74
  Q 1083.67 707.27 1098.44 651.66
  Q 1111.54 602.31 1112.83 555.65
  Q 1114.69 488.30 1094.64 422.15
  Q 1075.12 357.71 1037.50 303.96
  Q 969.49 206.80 860.19 157.64
  Q 851.97 153.94 841.93 150.12
  Q 763.11 120.11 679.09 121.95
  Q 668.81 122.18 659.30 123.02
  C 584.01 129.71 510.92 155.40 449.84 198.83
  Q 357.63 264.39 309.10 367.41
  C 291.50 404.75 279.90 445.39 274.14 486.12
  Z"
/>
<path fill="#0193de" d="
  M 772.95 157.18
  C 758.25 212.62 741.74 267.55 726.52 322.79
  A 0.62 0.61 8.9 0 1 725.90 323.24
  C 700.16 321.95 676.12 321.63 651.14 323.99
  Q 650.87 324.01 650.82 323.75
  L 618.49 155.93
  A 1.21 1.21 0.0 0 1 619.33 154.55
  C 628.68 151.69 635.22 151.38 647.66 150.45
  Q 659.79 149.54 672.00 148.86
  C 705.27 147.01 739.21 149.16 772.50 156.44
  Q 773.12 156.57 772.95 157.18
  Z"
/>
<path fill="#0193de" d="
  M 619.96 333.14
  C 597.94 340.05 577.24 351.05 558.36 364.53
  A 0.79 0.78 -36.4 0 1 557.28 364.37
  Q 510.27 302.26 467.76 245.66
  Q 461.91 237.87 454.23 229.96
  Q 453.84 229.55 454.08 229.04
  Q 456.40 224.19 460.85 221.08
  C 499.68 193.99 542.68 173.10 588.71 161.72
  A 0.43 0.42 -11.7 0 1 589.24 162.06
  Q 591.21 173.66 593.31 184.47
  Q 601.50 226.77 610.39 271.99
  Q 615.95 300.29 620.76 331.87
  Q 620.91 332.85 619.96 333.14
  Z"
/>
<path fill="#0193de" d="
  M 776.44 338.11
  Q 766.28 333.94 755.81 329.87
  Q 755.35 329.69 755.49 329.21
  C 771.77 274.62 786.95 219.73 802.41 164.77
  A 0.81 0.80 15.2 0 1 803.40 164.21
  Q 845.42 175.74 885.30 198.36
  Q 910.41 212.61 934.77 229.83
  A 0.44 0.43 -51.6 0 1 934.84 230.48
  Q 921.49 245.14 908.65 259.66
  Q 865.28 308.69 820.16 360.31
  A 0.65 0.63 -52.7 0 1 819.33 360.43
  Q 799.06 347.39 776.44 338.11
  Z"
/>
<path fill="#0193de" d="
  M 483.52 439.65
  C 454.57 424.24 424.55 409.76 394.96 395.36
  Q 367.01 381.76 335.53 365.13
  Q 335.06 364.88 335.29 364.41
  Q 336.28 362.35 337.41 360.37
  C 361.88 317.68 391.17 278.59 428.17 247.14
  A 1.37 1.36 37.1 0 1 429.62 246.94
  C 432.09 248.04 433.82 249.80 435.44 251.99
  Q 484.21 317.94 534.90 383.62
  Q 535.21 384.02 534.84 384.37
  Q 509.48 408.64 492.27 440.18
  A 1.60 1.59 13.0 0 1 490.94 441.01
  C 488.27 441.11 485.94 440.94 483.52 439.65
  Z"
/>
<path fill="#0193de" d="
  M 982.41 401.39
  L 977.44 404.54
  Q 970.40 408.67 962.98 412.04
  Q 949.22 418.31 948.18 418.81
  Q 921.41 431.87 894.25 443.86
  Q 893.26 444.30 892.77 443.32
  C 880.83 419.45 862.69 398.21 843.30 379.11
  Q 842.92 378.74 843.27 378.35
  C 880.16 337.59 912.84 299.71 947.42 260.73
  C 951.12 256.56 954.30 253.66 958.63 250.80
  Q 958.94 250.59 959.22 250.84
  Q 1012.05 298.81 1045.67 361.18
  Q 1047.71 364.96 1049.40 371.60
  Q 1049.53 372.10 1049.05 372.28
  C 1030.73 379.18 1013.76 388.80 996.77 396.27
  Q 993.08 397.89 982.41 401.39
  Z"
/>
<path fill="#e77918" d="
  M 737.75 364.21
  C 770.52 367.08 798.04 387.05 823.35 406.35
  Q 829.63 411.14 834.20 416.56
  C 850.05 435.35 861.27 456.79 870.22 479.83
  C 888.97 528.10 884.13 582.82 863.71 630.85
  Q 863.38 631.63 862.56 631.41
  C 858.80 630.42 855.58 629.48 851.97 627.71
  Q 769.94 587.33 695.00 550.22
  Q 691.12 548.30 687.22 550.17
  Q 598.22 592.91 512.56 633.73
  Q 512.09 633.95 511.94 633.45
  Q 501.42 598.55 498.14 564.66
  Q 493.78 519.72 507.99 478.73
  Q 514.51 459.92 526.84 442.30
  C 550.58 408.36 585.77 384.16 625.12 370.01
  Q 636.14 366.04 647.81 362.52
  Q 656.67 359.85 664.99 359.00
  Q 705.41 354.89 740.68 361.58
  Q 745.29 362.45 740.64 363.12
  Q 739.22 363.33 737.71 363.82
  Q 736.79 364.12 737.75 364.21
  Z"
/>
<path fill="#0193de" d="
  M 349.76 406.21
  C 392.34 426.75 434.54 448.10 476.67 469.54
  A 1.04 1.04 0.0 0 1 477.21 470.71
  Q 473.83 484.31 469.44 499.28
  C 468.48 502.55 468.04 506.07 467.67 509.32
  Q 465.92 524.26 464.35 537.28
  Q 463.90 541.00 463.07 545.51
  Q 462.97 546.02 462.45 546.01
  C 404.31 545.21 347.57 546.81 291.65 546.82
  Q 290.77 546.82 290.78 545.94
  C 291.27 494.31 302.19 442.97 321.18 394.71
  A 0.84 0.84 0.0 0 1 322.17 394.20
  C 332.07 396.68 340.74 401.86 349.76 406.21
  Z"
/>
<path fill="#0193de" d="
  M 942.98 454.30
  Q 1002.28 425.97 1062.49 399.35
  A 0.75 0.74 -24.0 0 1 1063.47 399.72
  Q 1064.64 402.31 1065.66 405.06
  Q 1083.82 453.79 1089.85 506.26
  Q 1090.65 513.25 1091.50 520.24
  Q 1093.27 534.71 1091.99 548.68
  Q 1091.94 549.22 1091.40 549.20
  C 1078.10 548.83 1064.65 548.85 1051.87 548.47
  Q 985.51 546.49 919.94 545.76
  Q 919.34 545.75 919.29 545.15
  Q 918.42 533.62 917.15 521.99
  Q 914.34 496.36 905.51 473.20
  Q 905.31 472.67 905.82 472.42
  Q 924.57 463.09 942.98 454.30
  Z"
/>
<path fill="#71645e" d="
  M 982.41 401.39
  Q 983.44 405.08 979.25 406.00
  Q 978.26 406.22 977.44 404.54
  L 982.41 401.39
  Z"
/>
<path fill="#0193de" d="
  M 410.99 575.66
  C 428.97 575.54 447.31 575.14 465.43 574.62
  Q 466.07 574.60 466.10 575.24
  C 466.87 594.40 473.51 612.54 479.52 630.76
  Q 481.61 637.10 483.39 644.05
  A 0.67 0.66 70.6 0 1 483.03 644.81
  C 436.35 666.70 390.77 690.54 344.30 713.67
  C 339.39 716.11 334.15 717.63 328.88 718.74
  Q 328.26 718.87 328.00 718.29
  Q 298.43 652.78 291.67 578.53
  A 0.70 0.70 0.0 0 1 292.34 577.77
  Q 346.00 576.07 410.99 575.66
  Z"
/>
<path fill="#0193de" d="
  M 1053.05 721.33
  Q 1052.05 723.43 1051.10 725.50
  A 0.55 0.55 0.0 0 1 1050.38 725.77
  Q 973.44 689.94 895.03 650.15
  Q 894.54 649.90 894.79 649.41
  C 905.24 629.10 912.68 607.16 915.59 585.08
  Q 916.13 580.94 916.61 576.89
  Q 916.69 576.27 917.32 576.26
  Q 957.46 575.73 989.30 576.78
  Q 1042.59 578.53 1090.18 578.57
  Q 1090.60 578.57 1090.57 578.99
  C 1087.77 627.87 1073.91 677.09 1053.05 721.33
  Z"
/>
<path fill="#71645e" d="
  M 779.16 684.16
  Q 779.60 684.59 779.35 684.03
  Q 769.93 662.97 760.72 640.13
  A 0.39 0.38 84.6 0 1 761.14 639.61
  Q 768.32 640.99 774.91 641.21
  Q 788.17 641.67 802.74 641.82
  C 815.05 641.96 827.22 644.19 837.76 649.55
  Q 840.89 651.14 844.35 652.78
  Q 937.50 696.88 1033.15 741.02
  Q 1034.21 741.51 1033.05 741.63
  Q 1003.03 744.88 974.96 745.61
  C 965.66 745.85 956.12 746.43 946.75 747.15
  Q 906.47 750.27 870.49 752.81
  C 856.28 753.81 840.84 753.85 826.22 754.92
  C 797.78 756.99 769.20 759.93 740.49 760.79
  Q 729.16 761.13 720.43 761.71
  Q 680.49 764.39 640.12 767.73
  Q 636.67 768.02 633.25 765.71
  Q 591.53 737.54 548.67 709.33
  Q 548.31 709.09 547.91 709.27
  C 487.57 736.00 427.46 760.96 367.21 786.55
  A 1.45 1.45 0.0 0 1 365.49 786.09
  L 332.62 742.07
  A 0.43 0.42 58.8 0 1 332.77 741.44
  Q 428.65 694.24 524.60 647.62
  Q 529.15 645.41 537.81 644.57
  C 545.99 643.78 554.33 642.94 562.28 642.55
  Q 593.96 640.97 624.79 637.54
  A 0.22 0.22 0.0 0 1 625.01 637.87
  Q 613.18 657.28 603.08 677.75
  Q 602.59 678.74 603.50 678.10
  C 621.78 665.19 640.74 652.48 659.77 640.03
  A 0.43 0.42 -17.5 0 1 660.43 640.37
  Q 661.06 664.96 659.23 688.67
  Q 659.09 690.49 660.01 688.91
  Q 675.93 661.56 693.49 633.19
  A 0.27 0.27 0.0 0 1 693.98 633.25
  Q 704.69 666.88 716.69 698.98
  Q 716.95 699.68 717.11 698.95
  C 721.47 678.23 726.12 657.43 729.61 636.54
  A 0.23 0.23 0.0 0 1 730.00 636.42
  Q 734.22 640.67 738.81 645.16
  Q 759.24 665.16 779.16 684.16
  Z"
/>
<path fill="#71645e" d="
  M 520.46 908.97
  Q 468.24 886.60 424.78 849.84
  Q 399.91 828.82 378.48 806.18
  A 0.30 0.29 56.1 0 1 378.57 805.71
  C 431.43 781.27 485.03 758.22 537.80 733.19
  A 1.13 1.11 48.2 0 1 538.89 733.26
  Q 575.39 756.24 605.38 775.83
  Q 682.36 826.10 761.00 877.66
  Q 790.15 896.77 825.79 919.46
  A 0.42 0.42 0.0 0 1 825.74 920.19
  C 815.06 925.14 803.52 925.99 792.26 928.32
  Q 783.90 930.04 776.05 931.16
  Q 745.16 935.58 736.49 936.72
  C 724.55 938.30 712.91 938.86 699.80 938.79
  Q 674.90 938.65 652.84 938.73
  Q 642.06 938.76 629.07 937.05
  C 590.76 931.98 554.80 923.68 520.46 908.97
  Z"
/>
<path fill="#71645e" d="
  M 1018.94 769.07
  C 979.02 832.41 921.34 882.24 852.74 911.14
  Q 851.97 911.47 851.27 911.01
  Q 786.61 868.20 712.98 819.99
  Q 688.92 804.23 666.09 788.91
  Q 664.16 787.62 666.48 787.48
  Q 721.28 784.24 776.01 781.66
  Q 813.21 779.91 852.89 777.11
  Q 862.88 776.40 872.87 776.09
  Q 912.77 774.85 952.40 771.82
  C 974.52 770.12 996.81 768.94 1018.75 768.10
  A 0.37 0.37 0.0 0 1 1019.13 768.51
  Q 1019.10 768.81 1018.94 769.07
  Z"
/>
<rect fill="#29166f" x="351.21" y="1064.26" width="62.86" height="161.74" rx="0.42"/>
<rect fill="#29166f" x="597.72" y="1064.25" width="62.80" height="161.76" rx="0.54"/>
<path fill="#29166f" d="
  M 882.48 1200.13
  C 874.68 1215.67 859.38 1227.96 841.59 1227.59
  Q 818.37 1227.11 793.52 1227.08
  Q 793.02 1227.08 793.01 1226.58
  Q 791.98 1178.74 791.70 1132.07
  Q 791.66 1125.51 790.60 1122.29
  Q 788.68 1116.42 782.94 1112.82
  C 771.66 1105.74 752.89 1109.58 747.32 1122.38
  Q 745.99 1125.44 745.81 1129.54
  Q 744.67 1155.38 745.51 1173.34
  C 746.04 1184.78 755.79 1185.69 764.69 1185.72
  Q 765.26 1185.72 765.26 1186.29
  L 765.20 1226.55
  Q 765.20 1227.13 764.61 1227.13
  Q 749.45 1226.91 734.05 1227.37
  Q 724.23 1227.66 712.75 1225.16
  Q 700.32 1222.44 695.37 1211.19
  Q 691.17 1201.64 690.93 1190.90
  C 690.37 1166.57 690.23 1144.49 692.55 1122.27
  C 693.85 1109.77 701.25 1097.50 712.12 1091.00
  Q 717.37 1087.87 724.79 1086.31
  C 739.10 1083.32 753.29 1083.87 767.41 1084.02
  Q 776.08 1084.12 787.74 1083.42
  C 804.55 1082.41 821.19 1082.80 837.80 1082.95
  Q 838.31 1082.95 838.36 1083.46
  Q 838.77 1088.31 838.74 1090.75
  C 838.44 1120.76 837.39 1150.83 839.75 1181.89
  Q 839.79 1182.39 840.19 1182.69
  C 848.21 1188.66 858.51 1191.50 866.68 1184.41
  C 877.20 1175.29 881.76 1161.88 883.05 1148.18
  Q 884.39 1133.99 883.53 1118.59
  C 882.78 1105.20 890.49 1093.52 902.31 1088.08
  Q 906.98 1085.93 915.75 1084.58
  Q 927.57 1082.77 937.98 1082.77
  Q 952.42 1082.77 976.05 1082.95
  C 993.23 1083.07 1010.25 1081.47 1027.40 1081.63
  Q 1028.19 1081.64 1028.18 1082.43
  Q 1027.96 1127.95 1028.15 1172.61
  Q 1028.16 1176.26 1029.40 1179.21
  C 1032.03 1185.51 1039.85 1192.36 1047.55 1191.19
  C 1055.70 1189.95 1061.41 1183.16 1063.90 1175.47
  Q 1064.95 1172.23 1065.03 1165.92
  C 1065.37 1138.89 1065.32 1111.57 1065.13 1083.72
  A 0.90 0.90 0.0 0 1 1066.03 1082.81
  L 1126.20 1082.78
  Q 1126.69 1082.78 1126.72 1083.27
  Q 1126.98 1087.91 1126.97 1091.98
  Q 1126.91 1132.42 1126.99 1171.15
  C 1127.01 1180.32 1131.39 1189.19 1140.38 1192.31
  Q 1141.00 1192.52 1141.63 1192.33
  C 1151.14 1189.40 1155.98 1179.41 1155.98 1169.92
  Q 1155.97 1125.29 1155.94 1083.44
  Q 1155.94 1082.83 1156.56 1082.83
  L 1212.41 1082.78
  A 0.54 0.54 0.0 0 1 1212.95 1083.33
  Q 1211.30 1155.33 1211.80 1227.71
  Q 1211.80 1228.30 1211.22 1228.30
  L 1158.97 1228.30
  Q 1158.41 1228.30 1158.36 1227.74
  L 1156.79 1209.29
  A 0.50 0.49 67.7 0 0 1155.98 1208.95
  C 1144.24 1218.69 1128.42 1226.17 1113.02 1226.17
  C 1100.23 1226.17 1087.92 1218.76 1078.52 1210.04
  A 0.92 0.92 0.0 0 0 1077.32 1209.99
  C 1068.04 1217.13 1058.29 1223.64 1047.33 1226.20
  C 1033.78 1229.36 1019.89 1223.07 1010.56 1212.86
  Q 1008.38 1210.47 1006.20 1208.18
  Q 1005.71 1207.66 1005.30 1208.24
  C 997.06 1219.67 984.09 1226.03 970.21 1226.79
  Q 945.26 1228.16 916.08 1226.04
  C 900.70 1224.92 885.82 1215.91 883.25 1200.25
  Q 883.05 1199.00 882.48 1200.13
  Z
  M 972.1826 1128.9635
  A 19.60 19.60 0.0 0 0 952.5485 1109.3977
  L 949.8285 1109.4024
  A 19.60 19.60 0.0 0 0 930.2627 1129.0366
  L 930.3374 1171.8165
  A 19.60 19.60 0.0 0 0 949.9715 1191.3823
  L 952.6915 1191.3776
  A 19.60 19.60 0.0 0 0 972.2573 1171.7434
  L 972.1826 1128.9635
  Z"
/>
<path fill="#29166f" d="
  M 485.15 1226.58
  C 485.78 1239.92 484.88 1253.27 481.05 1265.76
  C 469.57 1303.12 434.95 1307.62 401.52 1307.50
  A 0.32 0.31 0.0 0 1 401.20 1307.19
  L 401.09 1258.33
  Q 401.09 1257.74 401.67 1257.70
  C 414.21 1256.69 425.12 1254.29 429.18 1240.38
  Q 431.05 1233.97 430.86 1227.50
  Q 430.42 1212.13 430.38 1200.65
  Q 430.14 1140.04 430.24 1082.99
  Q 430.24 1082.72 430.51 1082.72
  L 486.54 1082.88
  Q 487.29 1082.88 487.29 1083.63
  Q 487.24 1122.58 487.22 1169.34
  Q 487.21 1176.52 488.57 1179.95
  Q 491.26 1186.81 498.09 1190.71
  C 505.92 1195.18 513.74 1189.42 517.83 1182.66
  Q 519.49 1179.92 519.59 1176.68
  Q 520.83 1138.01 521.05 1104.64
  Q 521.11 1094.28 521.74 1083.43
  Q 521.77 1082.86 522.34 1082.86
  L 579.81 1082.83
  A 0.45 0.45 0.0 0 1 580.26 1083.28
  Q 580.34 1129.69 580.34 1180.21
  Q 580.35 1191.00 579.04 1196.30
  C 575.91 1209.02 566.96 1218.94 554.11 1223.11
  Q 542.17 1226.98 529.27 1226.83
  C 514.28 1226.65 500.60 1225.23 485.85 1225.82
  Q 485.12 1225.85 485.15 1226.58
  Z"
/>
<circle fill="#29166f" cx="257.32" cy="1133.83" r="22.66"/>
<path fill="#29166f" d="
  M 330.02 1259.68
  Q 324.42 1276.27 311.31 1290.75
  C 304.54 1298.23 294.89 1304.68 285.46 1308.58
  Q 257.61 1320.07 228.72 1312.84
  Q 193.55 1304.03 176.86 1270.97
  C 171.69 1260.73 168.89 1248.68 167.48 1236.76
  Q 165.93 1223.70 166.14 1210.00
  Q 166.45 1188.66 166.38 1167.28
  Q 166.37 1166.63 167.03 1166.63
  L 219.43 1166.56
  Q 220.00 1166.55 219.99 1167.12
  Q 219.64 1196.62 219.80 1223.50
  Q 219.86 1234.34 221.12 1241.41
  C 223.66 1255.78 231.21 1268.10 245.33 1272.74
  C 252.95 1275.24 261.68 1271.46 267.63 1266.42
  Q 271.50 1263.14 274.39 1257.86
  Q 282.29 1243.40 282.40 1229.30
  Q 282.66 1197.45 282.46 1165.89
  Q 282.45 1165.33 283.02 1165.33
  C 301.26 1165.45 319.07 1164.72 336.94 1166.62
  A 0.63 0.63 0.0 0 1 337.50 1167.31
  C 335.81 1184.44 336.25 1201.78 336.07 1218.84
  C 335.93 1232.70 334.37 1246.79 330.02 1259.68
  Z"
/>
<path fill="#29166f" d="
  M 1090.34 1310.65
  C 1078.35 1303.05 1078.55 1281.74 1090.11 1273.99
  Q 1101.26 1266.51 1112.56 1271.71
  C 1121.66 1275.90 1127.63 1285.84 1126.05 1295.93
  C 1125.62 1298.65 1124.33 1300.78 1123.32 1303.26
  C 1120.84 1309.39 1114.44 1313.27 1107.90 1314.26
  Q 1098.35 1315.72 1090.34 1310.65
  Z"
/>
<path fill="#29166f" d="
  M 561.68 1285.41
  C 564.73 1274.15 576.54 1267.99 587.66 1270.44
  Q 603.91 1274.03 605.83 1290.75
  C 606.41 1295.83 602.50 1304.13 600.26 1308.60
  Q 600.02 1309.07 599.56 1309.33
  C 590.04 1314.68 579.84 1317.09 570.03 1310.95
  C 561.87 1305.84 559.22 1294.52 561.68 1285.41
  Z"
/>
<path fill="#29166f" d="
  M 1057.41 1305.44
  Q 1050.44 1314.72 1038.55 1314.69
  C 1029.87 1314.67 1023.68 1309.82 1018.39 1303.39
  Q 1017.33 1302.10 1017.27 1300.40
  C 1017.00 1292.74 1016.49 1282.66 1021.70 1277.50
  Q 1033.31 1266.04 1048.17 1271.76
  C 1061.90 1277.05 1066.29 1293.60 1057.41 1305.44
  Z"
/>
<circle fill="#29166f" cx="1183.89" cy="1292.27" r="22.52"/>
<path fill="#29166f" d="
  M 507.84 1312.00
  Q 496.90 1306.80 496.72 1294.51
  Q 496.63 1288.43 497.44 1281.77
  C 497.62 1280.26 498.46 1279.48 499.50 1278.52
  Q 513.25 1265.68 530.48 1272.66
  C 535.52 1274.70 538.54 1281.34 540.09 1286.27
  Q 543.78 1298.07 534.65 1307.94
  C 527.75 1315.39 516.82 1316.26 507.84 1312.00
  Z"
/>
</svg>
