<?xml version="1.0" encoding="UTF-8" standalone="no"?>
<!DOCTYPE svg PUBLIC "-//W3C//DTD SVG 1.1//EN" "http://www.w3.org/Graphics/SVG/1.1/DTD/svg11.dtd">
<svg xmlns="http://www.w3.org/2000/svg" version="1.1" viewBox="0.00 0.00 1240.00 1223.00">
<path fill="#0000a2" d="
  M 392.00 399.99
  L 392.00 267.00
  A 2.01 2.00 -90.0 0 1 394.00 264.99
  L 527.40 265.00
  Q 527.70 265.00 527.91 264.79
  L 622.98 169.72
  A 0.35 0.35 0.0 0 1 623.47 169.73
  Q 668.50 214.86 713.73 260.02
  Q 717.08 263.36 718.83 264.74
  A 1.11 1.07 -24.3 0 0 719.53 264.99
  L 853.12 265.00
  Q 854.00 265.00 854.00 265.87
  L 853.98 399.57
  A 1.74 1.71 22.5 0 0 854.50 400.80
  L 949.62 495.91
  A 0.23 0.23 0.0 0 1 949.62 496.24
  Q 903.98 541.54 856.03 589.71
  C 854.88 590.87 853.99 592.40 853.99 594.07
  Q 854.00 657.44 853.99 726.44
  Q 853.99 727.00 853.43 727.00
  L 719.72 726.99
  Q 719.22 726.99 718.83 727.32
  Q 715.65 730.03 712.72 732.97
  Q 668.09 777.57 623.56 822.15
  Q 623.26 822.45 622.94 822.16
  Q 618.67 818.36 614.96 814.65
  Q 574.61 774.33 532.58 732.27
  Q 529.99 729.67 527.16 727.31
  Q 526.78 726.99 526.28 726.99
  L 392.50 727.00
  A 0.50 0.50 0.0 0 1 392.00 726.50
  L 392.00 592.21
  A 1.23 1.22 -68.1 0 0 391.63 591.33
  L 296.99 496.73
  Q 296.48 496.22 296.99 495.71
  L 391.49 401.23
  Q 392.00 400.71 392.00 399.99
  Z
  M 429.17 415.83
  Q 403.59 442.61 380.25 465.10
  C 370.36 474.63 360.96 484.95 350.87 494.80
  Q 349.45 496.19 350.85 497.60
  L 428.24 574.97
  A 4.23 4.22 22.4 0 1 429.49 577.97
  L 429.49 688.73
  A 0.75 0.74 -90.0 0 0 430.23 689.48
  L 540.51 689.49
  A 5.49 5.48 67.5 0 1 544.40 691.11
  L 622.25 768.99
  Q 623.24 769.99 624.24 768.99
  L 702.72 690.53
  A 3.56 3.52 -67.3 0 1 705.22 689.49
  L 815.95 689.48
  A 0.59 0.58 -0.5 0 0 816.54 688.89
  Q 816.40 632.31 816.56 583.39
  Q 816.57 580.41 817.05 576.65
  Q 817.12 576.12 817.50 575.74
  Q 855.36 537.89 893.09 500.16
  Q 894.88 498.37 896.23 496.20
  Q 896.49 495.79 896.14 495.44
  Q 856.90 456.11 817.63 416.95
  Q 816.50 415.83 816.50 414.21
  Q 816.47 358.72 816.51 303.23
  A 0.72 0.72 0.0 0 0 815.79 302.51
  L 703.74 302.50
  Q 703.22 302.50 702.85 302.13
  L 623.59 222.84
  A 0.57 0.56 44.6 0 0 622.80 222.84
  C 596.55 249.16 570.15 275.97 543.05 302.17
  A 1.16 1.16 0.0 0 1 542.23 302.51
  L 429.99 302.51
  A 0.51 0.50 -0.0 0 0 429.48 303.01
  L 429.49 415.02
  Q 429.49 415.49 429.17 415.83
  Z"
/>
<rect fill="#0000a2" x="-18.38" y="-18.49" transform="translate(618.59,295.09) rotate(45.0)" width="36.76" height="36.98" rx="1.14"/>
<path fill="#0000a2" d="
  M 603.00 443.69
  A 0.55 0.55 0.0 0 0 603.01 444.48
  Q 611.91 452.78 620.90 462.54
  Q 621.25 462.92 621.66 462.60
  C 627.09 458.31 632.00 452.68 636.77 447.92
  Q 637.20 447.49 636.77 447.07
  Q 608.03 418.37 578.69 388.91
  Q 575.84 386.05 573.01 383.89
  Q 572.63 383.60 572.29 383.94
  L 520.97 435.25
  A 0.34 0.33 -44.4 0 1 520.50 435.25
  L 492.82 407.54
  A 0.34 0.33 -48.4 0 1 492.80 407.09
  Q 496.16 402.97 501.02 398.14
  Q 525.00 374.35 549.58 349.66
  C 556.58 342.63 563.74 336.02 570.77 328.91
  Q 571.19 328.49 571.61 328.91
  L 690.93 448.24
  A 0.43 0.42 44.5 0 1 690.94 448.84
  Q 685.88 454.29 681.07 459.12
  Q 652.08 488.22 622.60 517.64
  A 0.46 0.46 0.0 0 1 621.96 517.64
  L 549.33 445.10
  A 0.13 0.13 0.0 0 1 549.33 444.92
  L 580.02 414.26
  A 1.06 1.05 44.8 0 1 581.51 414.26
  L 606.82 439.51
  A 0.23 0.22 46.0 0 1 606.82 439.82
  L 603.00 443.69
  Z"
/>
<path fill="#0000a2" d="
  M 712.34 541.88
  Q 711.80 542.42 712.33 542.96
  L 729.67 560.44
  Q 730.78 561.56 731.88 560.44
  Q 748.02 544.15 763.44 528.83
  Q 766.49 525.80 769.91 522.85
  Q 770.26 522.54 770.60 522.88
  L 792.84 545.10
  A 0.49 0.49 0.0 0 1 792.84 545.78
  L 724.16 614.60
  A 0.17 0.17 0.0 0 1 723.92 614.60
  L 652.09 542.84
  Q 651.75 542.49 652.07 542.13
  C 660.69 532.54 672.53 521.76 679.31 514.93
  C 698.15 495.98 717.99 476.77 736.69 457.08
  A 0.52 0.52 0.0 0 0 736.68 456.35
  L 669.16 388.91
  A 0.45 0.44 43.7 0 0 668.52 388.92
  L 661.92 395.93
  Q 661.50 396.38 661.07 395.93
  Q 653.47 388.08 645.54 380.25
  C 641.37 376.14 636.96 372.66 633.42 368.02
  Q 633.10 367.60 633.47 367.23
  L 667.25 333.42
  Q 667.52 333.14 667.81 333.41
  Q 673.25 338.53 678.49 343.78
  Q 735.97 401.29 793.30 458.58
  Q 794.49 459.77 793.30 460.96
  L 712.34 541.88
  Z"
/>
<path fill="#0000a2" d="
  M 493.25 338.00
  A 1.74 1.74 0.0 0 1 494.99 339.74
  L 494.99 374.50
  Q 494.99 375.00 494.50 375.00
  L 458.25 375.00
  A 0.25 0.25 0.0 0 1 458.00 374.75
  L 458.00 338.50
  A 0.50 0.50 0.0 0 1 458.50 338.00
  L 493.25 338.00
  Z"
/>
<rect fill="#0000a2" x="748.00" y="338.00" width="37.00" height="37.00" rx="0.51"/>
<path fill="#0000a2" d="
  M 538.04 539.36
  Q 535.51 536.21 532.69 533.40
  Q 491.16 491.88 449.38 450.05
  A 0.48 0.47 45.4 0 1 449.38 449.38
  L 476.57 422.11
  Q 476.97 421.71 477.36 422.11
  L 593.75 538.45
  A 0.34 0.33 -45.6 0 1 593.75 538.92
  L 520.61 612.07
  Q 520.17 612.51 519.73 612.07
  C 515.34 607.66 511.33 602.98 506.88 598.53
  Q 477.02 568.74 448.94 540.68
  Q 448.48 540.22 448.94 539.75
  L 474.83 513.87
  Q 475.21 513.49 475.59 513.87
  L 519.59 557.88
  Q 519.97 558.27 520.35 557.88
  L 537.99 540.25
  Q 538.41 539.83 538.04 539.36
  Z"
/>
<rect fill="#0000a2" x="-18.39" y="-18.38" transform="translate(418.99,494.70) rotate(44.9)" width="36.78" height="36.76" rx="0.29"/>
<rect fill="#0000a2" x="-18.44" y="-18.39" transform="translate(823.93,500.31) rotate(-44.9)" width="36.88" height="36.78" rx="0.27"/>
<path fill="#0000a2" d="
  M 616.75 609.49
  A 0.42 0.42 0.0 0 0 616.16 609.49
  Q 591.96 632.72 569.46 656.20
  Q 569.07 656.60 568.68 656.20
  L 548.87 636.03
  Q 547.28 634.41 548.89 632.80
  L 620.59 561.11
  Q 620.98 560.73 621.36 561.11
  L 693.75 633.50
  Q 694.24 633.99 693.75 634.47
  L 668.00 660.25
  A 0.33 0.33 0.0 0 1 667.54 660.25
  L 616.75 609.49
  Z"
/>
<path fill="#0000a2" d="
  M 458.58 656.97
  A 0.62 0.62 0.0 0 1 457.96 656.35
  L 458.02 621.49
  A 3.91 1.52 0.1 0 1 461.93 619.97
  L 491.13 620.03
  A 3.91 1.52 0.1 0 1 495.04 621.55
  L 494.98 656.41
  A 0.62 0.62 0.0 0 1 494.36 657.03
  L 458.58 656.97
  Z"
/>
<rect fill="#0000a2" x="748.00" y="620.00" width="37.00" height="37.00" rx="0.63"/>
<rect fill="#0000a2" x="-18.38" y="-18.39" transform="translate(624.27,699.98) rotate(-45.0)" width="36.76" height="36.78" rx="0.45"/>
<path fill="#373435" d="
  M 327.26 841.27
  Q 335.35 844.08 337.49 852.14
  Q 337.63 852.66 337.41 853.15
  Q 335.07 858.42 331.63 862.07
  A 1.35 1.35 0.0 0 1 330.62 862.50
  C 326.30 862.38 322.49 859.21 319.64 856.22
  Q 319.28 855.84 319.47 855.36
  Q 322.50 847.80 326.78 841.43
  A 0.41 0.41 0.0 0 1 327.26 841.27
  Z"
/>
<path fill="#373435" d="
  M 879.50 865.33
  Q 882.21 858.07 886.76 851.45
  Q 886.97 851.14 887.34 851.16
  Q 893.72 851.46 896.88 858.36
  C 899.19 863.43 894.66 869.39 890.72 872.46
  Q 890.25 872.82 889.68 872.63
  Q 883.88 870.67 879.62 865.97
  A 0.62 0.61 -56.0 0 1 879.50 865.33
  Z"
/>
<path fill="#373435" d="
  M 360.80 927.27
  Q 363.53 922.24 367.05 918.40
  A 0.53 0.53 0.0 0 1 367.88 918.46
  C 374.76 928.38 367.41 941.19 358.80 947.39
  C 357.48 948.33 355.72 948.02 354.42 947.25
  C 338.20 937.67 352.39 886.45 356.85 871.59
  Q 358.40 866.43 360.67 861.66
  Q 360.96 861.04 361.24 861.67
  Q 363.03 865.66 362.27 869.82
  Q 360.45 879.80 357.15 892.61
  Q 355.16 900.32 354.24 908.40
  C 353.45 915.34 354.50 922.92 360.18 927.40
  A 0.42 0.41 -56.3 0 0 360.80 927.27
  Z"
/>
<path fill="#373435" d="
  M 705.70 873.13
  C 706.89 877.62 702.10 883.09 698.71 885.49
  Q 698.25 885.81 697.72 885.62
  C 694.69 884.51 686.83 880.70 688.27 877.30
  Q 691.06 870.70 694.89 864.65
  A 0.75 0.74 -73.8 0 1 695.52 864.30
  Q 699.50 864.33 701.58 866.26
  Q 704.62 869.05 705.70 873.13
  Z"
/>
<path fill="#373435" d="
  M 628.00 931.68
  Q 628.48 932.11 628.81 931.56
  L 632.76 924.94
  A 2.12 2.11 -42.9 0 1 636.47 925.07
  C 639.43 930.94 638.14 938.49 634.75 943.84
  Q 632.10 948.03 627.38 952.34
  Q 626.03 953.57 624.17 953.17
  C 612.92 950.73 614.08 929.91 614.99 921.81
  Q 618.18 893.64 628.01 867.18
  Q 628.50 865.88 629.00 867.17
  C 630.31 870.55 630.27 874.48 629.53 877.99
  C 626.85 890.78 622.63 903.75 622.09 916.72
  Q 621.70 926.06 628.00 931.68
  Z"
/>
<path fill="#373435" d="
  M 852.90 936.51
  C 853.79 933.35 855.64 929.41 859.22 928.79
  Q 859.84 928.68 860.07 929.27
  Q 862.74 936.08 861.25 942.42
  C 860.09 947.34 855.48 957.29 849.37 957.70
  C 835.33 958.63 838.31 933.64 839.33 925.97
  Q 842.90 899.26 851.08 873.94
  Q 851.48 872.69 852.40 871.76
  Q 852.83 871.32 852.88 871.93
  Q 853.50 878.83 852.05 885.32
  Q 849.24 897.89 846.63 911.06
  C 845.44 917.00 844.99 924.81 846.82 930.65
  Q 848.02 934.51 852.31 936.76
  A 0.41 0.41 0.0 0 0 852.90 936.51
  Z"
/>
<path fill="#373435" d="
  M 323.76 924.24
  Q 327.00 928.25 331.41 932.68
  C 334.23 935.52 334.82 940.06 334.55 943.89
  C 333.49 959.05 324.02 973.27 311.89 982.46
  C 304.98 987.70 296.20 991.38 287.69 989.57
  C 274.45 986.75 271.18 974.00 272.18 962.13
  Q 274.11 939.39 286.54 918.82
  Q 288.57 915.46 291.56 913.01
  A 0.42 0.41 63.1 0 1 292.23 913.23
  Q 292.49 914.28 291.96 915.24
  Q 283.65 930.14 280.61 943.54
  C 278.16 954.39 278.11 966.48 290.85 970.62
  C 304.52 975.07 322.35 963.60 328.61 952.40
  A 0.45 0.45 0.0 0 0 328.52 951.85
  Q 321.93 945.58 315.22 940.45
  A 0.85 0.85 0.0 0 1 314.89 939.74
  C 315.30 931.19 318.77 923.72 323.03 916.28
  Q 326.93 909.47 327.85 902.05
  Q 328.01 900.84 327.34 899.81
  L 321.54 890.92
  Q 321.21 890.43 321.41 889.87
  L 327.11 874.23
  A 0.38 0.38 0.0 0 1 327.64 874.02
  C 332.82 876.74 335.70 881.26 335.56 887.22
  C 335.27 900.45 329.36 911.45 323.63 923.09
  Q 323.33 923.71 323.76 924.24
  Z"
/>
<path fill="#373435" d="
  M 501.67 893.83
  C 499.88 897.07 497.50 901.24 493.93 902.74
  Q 493.37 902.97 492.89 902.60
  L 484.36 895.94
  Q 484.00 895.66 484.15 895.23
  Q 487.30 886.59 492.83 880.64
  A 0.73 0.73 0.0 0 1 493.80 880.55
  L 502.23 886.73
  Q 502.71 887.09 503.06 886.60
  L 509.56 877.65
  Q 509.90 877.19 510.44 877.37
  Q 515.18 878.97 518.01 882.72
  C 522.47 888.63 516.35 895.72 511.65 899.42
  Q 511.20 899.78 510.73 899.44
  L 502.59 893.62
  Q 502.01 893.20 501.67 893.83
  Z"
/>
<path fill="#373435" d="
  M 957.34 920.53
  Q 959.21 917.58 960.88 913.91
  Q 961.25 913.11 961.88 912.57
  Q 962.51 912.05 962.51 912.86
  Q 962.56 923.90 953.94 929.53
  Q 952.42 930.52 951.04 931.81
  C 948.72 933.96 947.02 936.71 943.71 937.30
  Q 940.76 937.83 937.84 937.95
  A 1.83 1.80 -70.8 0 0 936.52 938.60
  Q 932.54 943.34 928.57 947.80
  C 925.34 951.41 921.09 953.18 916.40 951.24
  C 908.57 948.01 906.78 937.35 907.03 929.71
  Q 907.88 903.94 917.50 878.92
  Q 917.82 878.09 918.08 878.94
  Q 919.02 882.14 918.29 885.84
  C 915.80 898.42 913.24 910.01 914.05 921.60
  Q 914.35 925.90 916.91 929.72
  C 922.55 938.12 932.91 934.85 939.51 929.53
  C 941.71 927.76 944.04 927.35 946.76 927.38
  A 1.84 1.83 21.9 0 0 948.08 926.82
  C 950.42 924.42 952.42 921.47 956.15 921.24
  Q 956.93 921.19 957.34 920.53
  Z"
/>
<path fill="#373435" d="
  M 421.37 920.70
  C 418.70 933.44 409.91 947.83 396.34 950.61
  Q 394.89 950.90 396.09 950.03
  C 402.44 945.41 408.98 940.33 411.79 932.93
  C 414.49 925.80 409.19 918.72 403.43 914.97
  A 0.96 0.96 0.0 0 1 403.06 913.84
  L 409.11 897.43
  A 0.42 0.42 0.0 0 1 409.61 897.17
  C 420.68 900.21 423.49 910.54 421.37 920.70
  Z"
/>
<path fill="#373435" d="
  M 753.62 919.96
  Q 757.06 923.59 759.48 927.14
  Q 759.80 927.61 759.66 928.16
  Q 758.09 934.11 754.34 938.28
  A 1.58 1.57 -62.1 0 1 752.80 938.76
  L 743.49 936.52
  A 2.36 2.35 -62.1 0 0 741.19 937.23
  C 736.30 942.62 731.85 948.32 725.91 952.63
  C 720.06 956.88 714.98 954.27 709.41 951.61
  Q 708.59 951.22 707.79 951.64
  L 695.07 958.33
  Q 694.41 958.68 694.57 957.94
  C 696.65 948.53 703.28 940.39 711.10 935.16
  C 714.47 932.90 718.37 932.11 722.16 933.87
  C 726.69 935.97 730.73 937.45 735.39 934.17
  C 741.46 929.91 745.10 922.66 748.71 916.14
  C 752.81 908.74 760.60 899.64 769.54 906.19
  Q 770.03 906.55 770.61 906.39
  C 774.92 905.19 776.64 902.45 778.73 898.93
  Q 779.45 897.71 780.78 897.37
  Q 781.80 897.11 781.63 898.14
  C 780.68 903.92 776.27 913.56 769.94 915.89
  C 766.31 917.22 764.34 914.68 761.46 913.10
  A 1.70 1.68 -33.6 0 0 760.50 912.91
  Q 756.68 913.31 753.80 915.85
  A 2.86 2.86 0.0 0 0 753.62 919.96
  Z"
/>
<path fill="#373435" d="
  M 835.16 898.86
  Q 835.69 897.80 836.10 898.92
  C 837.56 902.97 837.89 907.56 837.47 911.75
  C 834.06 946.36 821.17 990.57 778.94 991.91
  Q 774.54 992.05 769.13 989.53
  C 762.41 986.40 758.64 978.24 757.57 971.14
  C 755.37 956.61 759.08 938.88 768.45 927.42
  Q 769.33 926.35 770.55 925.74
  Q 771.29 925.37 771.07 926.17
  Q 769.17 932.82 766.10 939.51
  C 763.10 946.06 761.87 953.50 764.38 960.06
  C 771.89 979.70 805.54 968.55 816.88 959.72
  C 824.71 953.62 827.11 941.80 827.95 932.04
  C 828.98 920.00 830.08 908.89 835.16 898.86
  Z"
/>
<path fill="#373435" d="
  M 543.83 928.44
  C 567.08 925.76 596.51 918.81 609.84 899.93
  Q 610.28 899.31 610.62 899.99
  Q 611.93 902.58 611.14 905.05
  C 609.16 911.21 604.94 916.07 600.51 920.94
  Q 592.56 929.71 581.34 934.39
  Q 561.14 942.82 537.62 946.48
  Q 508.34 951.03 476.91 950.97
  Q 462.70 950.95 449.66 948.28
  C 440.35 946.37 428.58 940.89 430.06 929.17
  Q 431.09 921.09 436.05 914.71
  Q 437.62 912.70 437.99 915.22
  C 440.57 932.73 469.91 930.96 482.03 931.90
  C 486.66 932.26 491.26 931.49 495.93 931.48
  Q 517.69 931.45 543.83 928.44
  Z"
/>
<path fill="#373435" d="
  M 652.98 944.10
  C 648.52 949.01 643.86 953.91 637.75 956.30
  C 634.89 957.42 631.27 956.96 628.20 956.97
  Q 627.19 956.97 627.75 956.13
  C 628.30 955.28 628.55 954.39 629.48 953.84
  C 638.92 948.27 648.09 941.64 654.32 933.10
  C 658.07 927.97 660.57 921.80 663.38 916.02
  Q 664.46 913.80 666.00 912.26
  Q 666.51 911.75 666.38 912.46
  Q 665.27 918.51 665.43 925.66
  C 665.53 930.42 666.94 934.67 672.53 934.73
  A 0.98 0.96 12.4 0 0 673.43 934.17
  Q 678.94 922.32 687.68 914.71
  Q 694.19 909.05 702.01 911.24
  Q 708.51 913.06 713.85 913.63
  Q 714.42 913.69 714.34 914.25
  C 713.55 920.49 707.93 924.20 704.60 929.09
  C 694.05 944.63 671.71 971.78 654.09 944.20
  Q 653.59 943.42 652.98 944.10
  Z
  M 702.84 924.03
  C 698.23 922.79 690.93 919.62 686.80 923.11
  Q 679.79 929.04 676.37 935.57
  A 0.26 0.26 0.0 0 0 676.59 935.95
  Q 685.03 936.38 691.79 933.07
  Q 695.49 931.25 703.01 924.78
  Q 703.64 924.24 702.84 924.03
  Z"
/>
<path fill="#373435" d="
  M 892.79 920.55
  Q 894.46 916.62 896.75 912.74
  Q 899.37 908.28 898.89 913.43
  C 897.53 928.09 890.51 946.95 876.93 954.02
  Q 870.74 957.25 863.55 955.27
  Q 861.63 954.74 863.31 953.67
  Q 867.71 950.87 872.08 947.82
  C 881.07 941.56 888.49 930.65 892.79 920.55
  Z"
/>
<path fill="#373435" d="
  M 789.03 934.75
  C 790.26 929.10 793.07 924.22 796.07 919.33
  A 0.76 0.76 0.0 0 1 796.87 918.99
  Q 804.44 920.69 807.77 927.75
  Q 808.30 928.87 807.54 931.76
  Q 805.78 938.40 800.16 942.20
  Q 799.69 942.52 799.19 942.25
  Q 793.92 939.43 789.32 935.60
  Q 788.92 935.26 789.03 934.75
  Z"
/>
<path fill="#373435" d="
  M 362.27 956.95
  Q 360.80 957.34 361.99 956.39
  C 373.36 947.36 384.12 938.47 391.09 925.84
  Q 391.57 924.98 392.43 925.45
  L 393.04 925.79
  Q 393.75 926.17 393.65 926.97
  Q 392.46 936.86 387.23 942.38
  Q 377.06 953.10 362.27 956.95
  Z"
/>
<path fill="#373435" d="
  M 713.69 1001.46
  C 711.94 1005.14 709.48 1008.81 705.68 1010.51
  Q 705.22 1010.72 704.82 1010.40
  L 696.98 1004.06
  A 1.79 1.79 0.0 0 1 696.42 1002.06
  Q 699.07 994.64 705.14 988.26
  Q 705.50 987.88 705.92 988.20
  L 714.10 994.49
  Q 714.54 994.84 714.88 994.39
  Q 717.80 990.50 720.81 986.53
  Q 722.07 984.88 723.97 985.69
  C 728.06 987.43 732.89 991.87 731.31 996.84
  Q 729.55 1002.36 724.09 1007.13
  Q 723.66 1007.50 723.19 1007.20
  L 714.23 1001.31
  A 0.37 0.37 0.0 0 0 713.69 1001.46
  Z"
/>
<path fill="#373435" d="
  M 745.75 1006.65
  C 741.62 1005.47 737.84 1003.38 735.54 999.72
  Q 735.21 999.20 735.49 998.65
  L 741.95 986.06
  A 1.04 1.01 -78.7 0 1 742.77 985.50
  C 748.06 985.00 752.73 989.58 753.25 994.69
  C 753.71 999.20 750.11 1003.81 746.67 1006.47
  Q 746.25 1006.79 745.75 1006.65
  Z"
/>
</svg>
