<?xml version="1.0" encoding="UTF-8" standalone="no"?>
<!DOCTYPE svg PUBLIC "-//W3C//DTD SVG 1.1//EN" "http://www.w3.org/Graphics/SVG/1.1/DTD/svg11.dtd">
<svg xmlns="http://www.w3.org/2000/svg" version="1.1" viewBox="0.00 0.00 1623.00 1291.00">
<path fill="#082753" d="
  M 1101.26 276.21
  L 915.27 276.36
  A 0.43 0.43 0.0 0 0 914.98 276.48
  L 881.33 308.73
  A 0.43 0.43 0.0 0 1 880.74 308.73
  L 839.01 269.84
  A 0.43 0.43 0.0 0 1 839.00 269.23
  L 888.91 217.72
  A 0.43 0.43 0.0 0 1 889.22 217.59
  L 1161.99 216.26
  A 0.43 0.43 0.0 0 1 1162.42 216.69
  L 1162.28 476.04
  A 0.43 0.43 0.0 0 1 1162.14 476.36
  L 1020.77 607.37
  A 0.43 0.43 0.0 0 0 1020.63 607.69
  L 1020.73 712.87
  A 0.43 0.43 0.0 0 1 1020.30 713.30
  L 909.73 712.28
  A 0.43 0.43 0.0 0 0 909.42 712.41
  L 883.44 738.36
  A 0.43 0.43 0.0 0 1 882.85 738.37
  L 840.02 698.37
  A 0.43 0.43 0.0 0 1 840.01 697.76
  L 883.11 654.08
  A 0.43 0.43 0.0 0 1 883.42 653.95
  L 958.66 654.66
  A 0.43 0.43 0.0 0 0 959.10 654.22
  L 958.42 583.29
  A 0.43 0.43 0.0 0 1 958.56 582.97
  L 1102.06 453.65
  A 0.43 0.43 0.0 0 0 1102.20 453.33
  L 1101.69 276.64
  A 0.43 0.43 0.0 0 0 1101.26 276.21
  Z"
/>
<path fill="#082753" d="
  M 559.74 278.26
  L 559.74 451.98
  A 1.43 1.42 22.2 0 0 560.17 453.00
  L 595.25 486.77
  Q 595.49 487.01 595.24 487.24
  L 553.57 526.43
  A 0.45 0.45 0.0 0 1 552.97 526.43
  L 497.13 475.76
  A 1.07 1.07 0.0 0 1 496.77 474.96
  L 496.77 219.28
  A 0.45 0.45 0.0 0 1 497.22 218.83
  L 770.73 218.83
  A 1.69 1.68 -22.6 0 1 771.91 219.31
  L 909.71 354.26
  A 1.77 1.75 -22.5 0 0 910.94 354.76
  L 1019.80 354.75
  Q 1020.35 354.75 1020.35 355.30
  L 1019.90 458.84
  A 1.57 1.56 -67.9 0 0 1020.37 459.96
  L 1048.05 486.69
  Q 1048.50 487.12 1048.03 487.54
  L 1004.83 526.77
  A 0.60 0.59 -44.6 0 1 1004.02 526.77
  Q 982.45 506.45 960.94 486.42
  Q 959.36 484.94 958.03 483.42
  Q 957.70 483.04 957.65 482.53
  Q 957.33 479.54 957.34 476.26
  Q 957.43 442.57 957.44 413.69
  A 0.71 0.71 0.0 0 0 956.73 412.98
  L 886.28 413.00
  A 3.07 3.06 -22.9 0 1 884.15 412.14
  L 745.01 277.77
  A 0.93 0.91 66.6 0 0 744.37 277.51
  L 560.49 277.51
  Q 559.74 277.51 559.74 278.26
  Z"
/>
<path fill="#082753" d="
  M 560.39 789.61
  L 746.29 789.46
  A 0.53 0.53 0.0 0 0 746.65 789.31
  L 780.15 757.20
  A 0.53 0.53 0.0 0 1 780.89 757.20
  L 821.36 797.14
  A 0.53 0.53 0.0 0 1 821.36 797.89
  L 772.72 848.07
  A 0.53 0.53 0.0 0 1 772.34 848.23
  L 499.72 849.62
  A 0.53 0.53 0.0 0 1 499.19 849.09
  L 499.26 589.88
  A 0.53 0.53 0.0 0 1 499.43 589.49
  L 640.75 458.53
  A 0.53 0.53 0.0 0 0 640.92 458.14
  L 640.83 353.10
  A 0.53 0.53 0.0 0 1 641.37 352.56
  L 751.83 353.55
  A 0.53 0.53 0.0 0 0 752.21 353.39
  L 778.31 327.35
  A 0.53 0.53 0.0 0 1 779.04 327.34
  L 821.48 367.39
  A 0.53 0.53 0.0 0 1 821.49 368.15
  L 778.53 411.72
  A 0.53 0.53 0.0 0 1 778.15 411.88
  L 703.00 411.18
  A 0.53 0.53 0.0 0 0 702.47 411.71
  L 703.17 482.48
  A 0.53 0.53 0.0 0 1 702.99 482.88
  L 559.54 612.18
  A 0.53 0.53 0.0 0 0 559.36 612.58
  L 559.86 789.08
  A 0.53 0.53 0.0 0 0 560.39 789.61
  Z"
/>
<path fill="#082753" d="
  M 861.13 436.21
  C 863.45 457.78 853.92 473.01 832.05 476.27
  Q 831.44 476.36 831.37 475.75
  C 828.88 455.96 839.99 437.75 860.58 435.76
  Q 861.08 435.71 861.13 436.21
  Z"
/>
<path fill="#082753" d="
  M 824.08 584.55
  C 810.03 589.62 798.19 586.15 787.96 575.67
  C 768.30 555.52 760.91 527.77 769.57 500.83
  C 775.45 482.55 791.64 471.26 811.15 476.33
  Q 817.23 477.91 823.46 479.59
  Q 834.65 482.59 845.20 479.06
  C 848.25 478.04 850.92 476.29 853.95 475.18
  C 862.84 471.93 873.37 475.72 880.64 481.31
  C 893.47 491.17 898.36 510.26 897.46 525.96
  Q 895.91 553.13 877.43 574.02
  C 870.58 581.76 861.35 587.41 850.72 586.17
  Q 846.17 585.64 841.26 584.05
  Q 832.97 581.35 824.08 584.55
  Z"
/>
<path fill="#082753" d="
  M 915.52 534.75
  Q 917.49 534.26 919.36 534.92
  Q 919.88 535.10 919.91 535.66
  Q 920.71 555.80 920.63 567.18
  C 920.57 577.46 915.57 585.93 909.28 593.67
  Q 900.45 604.54 891.75 611.50
  Q 883.39 618.18 870.92 622.95
  C 843.53 633.44 810.91 634.44 785.10 619.02
  C 769.87 609.91 756.99 598.60 747.88 583.33
  Q 745.89 579.98 745.09 576.95
  C 743.63 571.41 743.70 564.57 744.02 558.68
  Q 744.65 547.49 744.66 536.14
  A 1.17 1.17 0.0 0 1 745.24 535.13
  Q 747.15 534.02 749.61 534.58
  Q 750.48 534.78 750.59 533.90
  Q 750.87 531.78 752.32 530.05
  A 2.28 2.28 0.0 0 1 755.73 529.97
  Q 757.15 531.50 757.34 533.59
  Q 758.69 548.46 760.01 562.19
  A 0.36 0.36 0.0 0 1 759.59 562.58
  C 756.11 561.95 749.91 560.94 749.67 566.20
  C 749.54 568.89 750.40 572.05 751.93 574.32
  Q 760.55 587.15 771.18 598.30
  C 774.00 601.26 779.90 608.44 783.82 609.00
  A 0.81 0.81 0.0 0 0 784.69 607.91
  Q 783.40 604.49 781.08 601.76
  Q 768.90 587.43 757.52 574.13
  C 755.33 571.57 754.22 566.35 759.18 565.96
  C 761.40 565.78 763.73 567.35 765.25 568.90
  Q 771.96 575.77 778.98 582.53
  C 783.44 586.81 788.15 590.39 794.20 591.48
  C 799.89 592.50 805.92 592.68 811.45 594.51
  C 820.97 597.67 826.77 605.24 833.78 612.04
  A 0.55 0.54 -48.7 0 0 834.59 611.98
  Q 838.08 607.58 841.53 603.12
  C 845.26 598.29 850.21 595.86 855.78 593.76
  C 860.17 592.11 864.74 591.81 869.36 591.69
  C 875.35 591.53 880.56 588.59 884.66 584.14
  Q 890.85 577.40 897.03 570.30
  Q 900.94 565.80 905.41 565.52
  C 911.84 565.12 909.59 572.27 907.24 575.09
  Q 895.32 589.39 882.69 604.42
  Q 881.44 605.90 881.79 607.71
  Q 882.00 608.77 884.46 607.28
  Q 885.41 606.71 886.21 605.92
  Q 899.11 593.23 912.81 575.34
  Q 914.59 573.03 915.28 570.90
  C 917.69 563.43 911.07 561.33 905.36 561.33
  Q 904.69 561.33 904.76 560.66
  Q 906.35 546.41 907.88 532.66
  C 908.04 531.16 909.35 529.60 910.96 529.65
  C 913.53 529.74 914.74 531.91 914.88 534.27
  Q 914.91 534.90 915.52 534.75
  Z"
/>
<path fill="#082753" d="
  M 1097.94 613.41
  L 1063.64 581.11
  A 0.44 0.44 0.0 0 1 1063.64 580.47
  L 1105.74 541.04
  A 0.44 0.44 0.0 0 1 1106.34 541.03
  L 1160.91 590.53
  A 0.44 0.44 0.0 0 1 1161.05 590.85
  L 1161.04 846.82
  A 0.44 0.44 0.0 0 1 1160.60 847.26
  L 886.57 847.27
  A 0.44 0.44 0.0 0 1 886.26 847.14
  L 747.73 711.44
  A 0.44 0.44 0.0 0 0 747.42 711.31
  L 637.91 711.32
  A 0.44 0.44 0.0 0 1 637.47 710.88
  L 637.93 606.83
  A 0.44 0.44 0.0 0 0 637.79 606.51
  L 611.39 581.04
  A 0.44 0.44 0.0 0 1 611.40 580.40
  L 654.06 540.19
  A 0.44 0.44 0.0 0 1 654.66 540.19
  L 700.27 582.89
  A 0.44 0.44 0.0 0 1 700.41 583.21
  L 700.42 652.65
  A 0.44 0.44 0.0 0 0 700.86 653.09
  L 772.62 653.11
  A 0.44 0.44 0.0 0 1 772.93 653.23
  L 912.93 788.45
  A 0.44 0.44 0.0 0 0 913.24 788.57
  L 1097.64 788.58
  A 0.44 0.44 0.0 0 0 1098.08 788.14
  L 1098.08 613.73
  A 0.44 0.44 0.0 0 0 1097.94 613.41
  Z"
/>
<path fill="#082753" d="
  M 843.51 970.97
  Q 838.41 982.67 831.30 989.80
  C 825.18 995.93 816.24 997.06 809.89 990.53
  C 807.47 988.05 802.73 985.76 805.76 981.66
  Q 807.12 979.82 808.55 978.08
  Q 812.29 973.49 813.35 966.40
  Q 815.01 955.34 814.78 943.92
  C 814.39 925.18 819.95 908.24 826.57 891.28
  Q 827.88 887.95 828.48 891.48
  Q 828.66 892.53 828.58 893.56
  Q 826.48 920.64 824.45 943.70
  Q 822.65 964.12 812.55 979.82
  A 0.40 0.40 0.0 0 0 812.86 980.43
  C 816.05 980.62 819.73 980.94 822.69 979.80
  Q 833.79 975.52 837.90 966.02
  Q 839.81 961.60 840.16 955.49
  Q 841.09 939.60 841.83 925.54
  Q 842.69 909.41 848.77 893.80
  Q 850.82 888.54 853.16 882.63
  Q 853.44 881.90 854.17 881.64
  A 0.66 0.66 0.0 0 1 855.04 882.34
  Q 852.09 906.14 851.24 930.54
  Q 850.97 938.36 851.68 945.09
  C 853.17 959.03 869.93 960.86 878.36 952.57
  Q 880.96 950.01 884.09 947.81
  C 887.75 945.24 892.18 950.04 894.70 944.54
  Q 896.14 941.39 897.49 938.13
  A 1.90 1.89 20.2 0 1 899.83 937.06
  C 902.92 938.08 905.68 938.85 907.29 935.07
  Q 908.79 931.54 910.28 927.41
  A 0.70 0.69 11.0 0 1 910.98 926.95
  Q 911.55 926.99 911.77 927.41
  Q 911.96 927.74 911.97 928.12
  Q 912.26 938.76 905.02 947.82
  Q 902.09 951.49 897.99 952.12
  Q 897.44 952.20 897.15 952.67
  C 895.50 955.40 893.29 958.58 890.48 960.19
  C 888.16 961.51 885.84 960.08 883.46 960.45
  Q 879.17 961.10 876.37 964.58
  Q 872.87 968.92 869.54 972.97
  C 866.90 976.17 863.00 978.93 858.73 979.43
  C 852.28 980.17 846.45 977.11 844.29 971.00
  Q 843.93 970.00 843.51 970.97
  Z"
/>
<path fill="#082753" d="
  M 394.44 965.03
  C 398.31 957.94 399.69 951.15 399.58 942.89
  C 399.49 935.59 398.89 928.01 400.51 920.74
  Q 402.33 912.59 406.23 903.28
  Q 407.24 900.85 408.80 898.80
  A 0.81 0.80 -38.3 0 1 410.18 898.96
  Q 410.36 899.37 410.34 899.81
  Q 409.86 910.56 409.62 923.25
  C 409.19 946.70 402.40 970.04 388.72 989.33
  Q 379.61 1002.18 367.92 1009.16
  C 344.11 1023.39 312.54 1016.49 311.78 984.04
  C 311.33 964.83 319.39 944.00 329.75 927.55
  A 0.80 0.79 -36.7 0 1 331.19 927.76
  Q 331.34 928.29 331.39 928.85
  Q 331.54 930.58 330.89 931.91
  C 322.52 949.19 310.29 978.61 335.08 988.57
  C 347.56 993.58 363.67 990.69 375.52 984.29
  Q 387.42 977.87 394.44 965.03
  Z"
/>
<path fill="#082753" d="
  M 434.70 927.12
  C 436.64 918.53 440.23 910.16 444.55 902.33
  A 0.87 0.85 13.7 0 1 445.31 901.88
  L 445.83 901.88
  A 0.73 0.73 0.0 0 1 446.57 902.69
  C 444.87 918.40 444.81 934.24 444.35 949.96
  Q 443.84 967.16 436.14 981.99
  Q 434.52 985.11 431.98 987.61
  A 1.02 1.01 31.5 0 1 430.94 987.85
  Q 430.22 987.60 430.08 987.00
  Q 430.01 986.73 430.08 986.46
  Q 433.21 973.11 433.42 963.78
  Q 433.64 953.50 433.41 943.33
  Q 433.20 933.79 434.70 927.12
  Z"
/>
<path fill="#082753" d="
  M 545.68 980.15
  Q 543.80 984.13 540.96 987.17
  Q 540.09 988.09 539.56 987.89
  Q 538.40 987.46 538.69 986.25
  C 540.90 977.07 542.16 968.31 542.07 958.77
  Q 541.97 949.21 542.00 939.74
  C 542.03 926.29 546.57 914.47 552.83 902.82
  Q 553.38 901.78 554.53 901.89
  Q 555.14 901.94 555.14 902.55
  C 555.15 903.85 554.83 905.06 554.74 906.38
  Q 553.32 926.49 553.08 947.26
  Q 552.87 964.94 545.68 980.15
  Z"
/>
<path fill="#082753" d="
  M 1296.41 984.31
  C 1294.54 987.39 1290.78 993.12 1286.45 992.24
  C 1282.46 991.43 1279.24 992.22 1276.40 995.40
  C 1270.23 1002.31 1265.28 1012.34 1254.12 1010.99
  C 1239.83 1009.26 1239.79 987.88 1240.57 977.48
  Q 1242.42 952.98 1246.84 928.23
  Q 1247.92 922.19 1250.10 916.71
  Q 1252.55 910.55 1254.89 904.20
  Q 1255.23 903.28 1255.83 902.40
  A 0.71 0.71 0.0 0 1 1257.10 902.58
  Q 1257.39 903.49 1257.29 904.41
  Q 1254.97 926.08 1252.17 947.93
  Q 1251.60 952.39 1251.16 957.63
  C 1250.54 965.14 1248.87 978.01 1254.10 984.31
  C 1259.80 991.18 1271.55 990.09 1277.49 984.28
  Q 1280.15 981.68 1283.13 979.54
  C 1286.67 977.01 1291.48 981.08 1293.62 976.70
  Q 1295.37 973.11 1296.80 969.73
  A 2.03 2.02 -65.3 0 1 1299.56 968.70
  Q 1305.10 971.42 1307.23 965.18
  Q 1308.36 961.89 1309.67 959.02
  Q 1310.00 958.31 1310.67 958.67
  A 1.16 1.15 14.2 0 1 1311.30 959.71
  Q 1311.26 973.31 1301.68 981.95
  Q 1300.05 983.41 1297.53 983.62
  Q 1296.79 983.68 1296.41 984.31
  Z"
/>
<path fill="#082753" d="
  M 1162.76 987.08
  A 1.27 1.27 0.0 0 0 1164.16 986.20
  Q 1165.79 980.93 1167.61 976.06
  C 1168.07 974.84 1169.26 973.71 1170.67 974.20
  C 1173.99 975.36 1175.20 981.44 1175.20 984.43
  C 1175.21 994.11 1169.91 1012.12 1157.09 1011.68
  C 1149.11 1011.40 1144.96 1003.71 1143.73 996.58
  C 1142.06 986.87 1142.97 976.98 1144.15 966.95
  Q 1146.33 948.32 1149.27 930.45
  Q 1150.37 923.81 1152.61 917.97
  Q 1155.49 910.45 1158.32 903.23
  A 0.93 0.91 8.4 0 1 1159.12 902.65
  Q 1160.09 902.60 1160.02 903.53
  C 1158.82 919.66 1156.24 936.97 1154.31 953.91
  Q 1153.19 963.67 1153.32 973.04
  C 1153.40 978.98 1156.33 986.15 1162.76 987.08
  Z"
/>
<path fill="#082753" d="
  M 1034.10 1000.72
  Q 1032.23 993.46 1032.86 985.34
  C 1034.21 967.80 1041.29 949.85 1050.77 934.77
  A 0.80 0.80 0.0 0 1 1052.24 935.08
  Q 1052.31 935.56 1052.36 936.04
  Q 1052.55 937.86 1051.85 939.28
  C 1047.24 948.55 1043.55 958.10 1041.86 968.28
  C 1040.12 978.77 1042.85 988.70 1052.55 994.06
  C 1067.86 1002.52 1091.19 997.46 1104.17 986.27
  C 1112.86 978.78 1119.81 967.32 1120.41 955.81
  Q 1120.77 948.99 1120.48 940.70
  C 1120.07 928.91 1123.79 917.42 1129.01 906.99
  Q 1129.52 905.97 1130.59 905.73
  A 0.68 0.67 84.8 0 1 1131.41 906.42
  Q 1130.94 916.70 1130.74 926.16
  Q 1130.45 939.60 1129.49 945.84
  Q 1127.30 960.14 1122.80 971.99
  C 1115.09 992.29 1100.99 1012.77 1080.52 1020.36
  C 1061.52 1027.40 1039.72 1022.55 1034.10 1000.72
  Z"
/>
<path fill="#082753" d="
  M 1210.67 921.11
  C 1212.62 916.19 1215.28 911.29 1218.12 906.64
  Q 1218.40 906.19 1218.85 906.49
  Q 1223.01 909.34 1225.47 912.21
  C 1229.61 917.04 1224.23 925.48 1220.43 928.62
  A 1.70 1.69 -44.8 0 1 1218.26 928.62
  L 1211.04 922.56
  A 1.28 1.27 -59.4 0 1 1210.67 921.11
  Z"
/>
<path fill="#082753" d="
  M 742.95 955.98
  Q 747.64 956.21 750.38 955.21
  Q 757.50 952.62 764.78 948.93
  C 768.02 947.29 770.30 944.70 771.85 941.41
  C 774.43 935.96 776.92 931.22 780.92 926.86
  C 784.37 923.10 786.02 918.15 788.72 913.90
  Q 789.11 913.28 789.73 913.67
  C 793.31 915.93 795.37 919.75 797.17 923.40
  C 800.03 929.19 799.04 933.85 795.08 938.94
  C 792.28 942.54 787.28 942.91 783.20 941.84
  Q 779.15 940.77 776.70 944.50
  Q 769.31 955.72 759.72 965.30
  C 752.74 972.27 745.40 966.18 738.25 963.40
  A 1.19 1.19 0.0 0 0 736.89 963.76
  Q 731.73 970.16 725.19 974.77
  C 709.07 986.13 688.57 992.29 668.76 995.43
  Q 640.84 999.86 610.52 998.90
  Q 600.75 998.59 591.85 997.10
  C 579.21 994.99 574.19 987.36 574.92 974.88
  Q 575.44 966.11 577.03 958.00
  Q 577.54 955.38 577.81 954.91
  Q 580.34 950.41 581.14 955.51
  C 582.15 961.93 584.17 966.92 590.75 969.26
  Q 597.42 971.63 605.53 972.48
  C 624.90 974.48 644.33 974.88 663.95 973.60
  Q 690.23 971.89 711.21 965.50
  Q 726.49 960.84 740.07 951.14
  A 1.37 1.37 0.0 0 1 742.24 952.25
  L 742.27 955.27
  Q 742.27 955.95 742.95 955.98
  Z"
/>
<path fill="#082753" d="
  M 499.21 935.28
  Q 502.94 933.43 506.96 931.30
  Q 510.21 929.58 511.89 926.74
  Q 514.06 923.06 516.60 919.20
  A 0.85 0.85 0.0 0 1 518.10 919.35
  Q 518.46 920.26 518.24 921.23
  Q 515.35 933.89 509.81 942.78
  C 508.36 945.11 506.31 946.98 503.83 948.17
  Q 499.35 950.33 494.93 952.66
  Q 491.95 954.22 489.73 956.62
  Q 487.07 959.50 484.58 965.78
  Q 481.75 972.88 478.83 979.78
  Q 474.40 990.23 463.53 993.35
  Q 455.12 995.76 445.94 996.07
  Q 444.89 996.11 444.14 995.44
  A 1.53 1.52 -43.9 0 1 444.19 993.11
  C 451.72 987.04 459.95 982.17 467.83 976.66
  C 471.81 973.86 475.77 970.49 477.76 965.87
  Q 481.16 958.02 485.50 948.96
  Q 489.84 939.92 499.21 935.28
  Z"
/>
<path fill="#082753" d="
  M 652.68 930.14
  A 0.39 0.39 0.0 0 0 653.32 930.11
  L 658.77 921.15
  A 1.85 1.85 0.0 0 1 661.25 920.49
  Q 663.70 921.85 665.85 924.21
  Q 670.25 929.02 667.01 934.72
  Q 664.54 939.07 661.57 941.83
  A 1.65 1.65 0.0 0 1 659.32 941.84
  L 653.07 936.10
  A 0.71 0.71 0.0 0 0 651.94 936.33
  Q 649.73 941.10 646.55 944.51
  A 2.42 2.42 0.0 0 1 643.23 944.72
  L 636.63 939.20
  A 1.39 1.39 0.0 0 1 636.24 937.59
  Q 638.55 932.04 642.42 925.57
  Q 643.14 924.35 644.04 923.60
  Q 644.52 923.19 645.14 923.36
  C 647.85 924.08 651.02 927.92 652.68 930.14
  Z"
/>
<path fill="#082753" d="
  M 972.89 954.87
  C 973.10 955.29 973.40 955.87 973.78 956.16
  Q 976.75 958.47 979.61 960.96
  Q 982.78 963.71 980.50 968.11
  Q 978.46 972.04 976.16 974.57
  C 973.97 976.98 969.48 975.67 966.68 974.95
  C 962.59 973.89 958.25 974.89 955.76 978.21
  Q 952.18 982.97 948.36 987.72
  C 941.95 995.69 931.82 1001.50 921.86 996.95
  C 916.70 994.59 908.51 998.04 903.95 1000.74
  A 1.06 1.05 -17.0 0 1 902.36 999.90
  Q 902.26 998.43 902.98 997.04
  C 907.83 987.55 918.00 975.38 929.22 974.98
  C 932.10 974.88 934.87 976.04 937.66 976.91
  C 942.15 978.32 947.79 975.86 951.11 972.86
  Q 955.28 969.09 957.55 965.46
  C 963.50 955.93 969.68 946.06 978.85 939.79
  Q 983.86 936.37 991.59 935.08
  C 995.78 934.38 1000.30 938.08 1003.02 933.09
  Q 1005.06 929.34 1007.27 925.36
  Q 1007.70 924.59 1008.33 925.19
  Q 1008.80 925.64 1008.75 926.33
  C 1008.25 932.97 1004.88 951.95 994.81 950.02
  C 987.72 948.67 978.94 949.32 973.03 954.15
  A 0.59 0.58 56.3 0 0 972.89 954.87
  Z"
/>
<path fill="#082753" d="
  M 352.86 947.63
  C 355.97 941.10 358.86 934.77 362.83 928.75
  A 0.26 0.26 0.0 0 1 363.22 928.69
  C 368.90 933.31 376.08 937.19 373.18 945.99
  Q 370.77 953.28 365.37 957.66
  A 2.10 2.10 0.0 0 1 362.70 957.64
  L 353.34 949.84
  A 1.84 1.84 0.0 0 1 352.86 947.63
  Z"
/>
<path fill="#082753" d="
  M 1073.90 956.16
  A 1.05 1.05 0.0 0 1 1073.68 955.03
  Q 1077.60 945.46 1083.19 936.66
  A 0.48 0.47 35.0 0 1 1083.89 936.54
  C 1088.99 940.52 1096.00 944.60 1093.55 952.50
  Q 1091.36 959.57 1086.17 964.09
  C 1084.51 965.53 1082.83 963.92 1081.35 962.76
  Q 1077.12 959.42 1073.90 956.16
  Z"
/>
<path fill="#082753" d="
  M 1214.36 973.19
  Q 1218.38 963.19 1222.37 950.80
  C 1222.71 949.74 1223.39 948.63 1224.03 947.71
  A 1.47 1.47 0.0 0 1 1226.68 948.25
  Q 1227.08 950.22 1226.70 952.70
  Q 1223.75 971.85 1216.60 991.02
  C 1213.99 998.00 1210.49 1003.56 1203.42 1006.65
  Q 1192.19 1011.54 1181.31 1013.44
  A 1.36 1.35 7.1 0 1 1179.84 1011.56
  Q 1181.05 1008.84 1183.82 1006.83
  Q 1193.01 1000.18 1200.95 993.57
  Q 1206.29 989.12 1209.13 984.14
  Q 1211.96 979.15 1214.36 973.19
  Z"
/>
<path fill="#082753" d="
  M 1006.49 985.66
  A 1.50 1.49 -64.5 0 1 1008.11 985.08
  C 1011.69 986.08 1014.80 989.80 1016.74 992.76
  C 1019.33 996.73 1013.16 1005.52 1010.53 1008.69
  A 1.35 1.34 36.6 0 1 1008.75 1008.95
  L 999.83 1003.03
  A 2.08 2.08 0.0 0 1 998.99 1000.68
  Q 1001.37 992.89 1006.49 985.66
  Z"
/>
<path fill="#082753" d="
  M 505.15 1003.98
  Q 507.65 999.48 510.60 994.84
  Q 511.31 993.74 512.32 993.12
  Q 512.74 992.87 513.19 993.05
  C 516.45 994.33 519.17 997.13 520.92 1000.11
  C 523.82 1005.06 519.94 1010.63 516.89 1014.62
  Q 515.63 1016.27 514.19 1017.24
  Q 512.68 1018.27 511.33 1017.03
  L 504.43 1010.66
  A 0.62 0.62 0.0 0 0 503.43 1010.88
  Q 501.50 1015.74 497.39 1020.30
  C 495.94 1021.90 494.24 1021.25 492.89 1020.05
  Q 489.68 1017.21 486.47 1014.67
  Q 485.17 1013.64 485.84 1012.13
  Q 489.34 1004.27 493.74 997.37
  A 2.03 2.02 28.3 0 1 496.28 996.61
  C 499.31 997.97 502.20 1001.55 504.24 1004.06
  Q 504.75 1004.70 505.15 1003.98
  Z"
/>
<path fill="#082753" d="
  M 979.71 1007.46
  Q 980.06 1007.93 980.37 1007.43
  L 986.27 997.78
  Q 987.16 996.33 988.67 997.12
  Q 994.20 1000.05 996.12 1005.09
  C 997.93 1009.84 992.61 1016.77 989.50 1019.74
  A 2.18 2.18 0.0 0 1 986.52 1019.76
  L 979.99 1013.73
  A 0.60 0.60 0.0 0 0 979.03 1013.92
  Q 976.88 1018.57 973.41 1022.65
  A 2.77 2.76 -49.8 0 1 969.53 1022.98
  L 962.58 1017.17
  Q 961.69 1016.44 962.14 1015.38
  Q 965.22 1008.12 969.80 1000.91
  A 1.30 1.25 -78.9 0 1 970.60 1000.35
  C 973.66 999.70 978.16 1005.43 979.71 1007.46
  Z"
/>
</svg>
